<svg width="568" height="535" viewBox="0 0 568 535" fill="none" xmlns="http://www.w3.org/2000/svg">
<rect width="568" height="535" rx="117" fill="#4974BE"/>
<path d="M355.943 78.5C382.332 78.5 404.141 82.3367 421.621 89.7012L421.646 89.7119L421.669 89.7217C439.615 97.137 452.81 107.36 461.722 120.192C470.62 133.006 475.197 148.312 475.197 166.442C475.197 188.499 470.166 206.189 460.615 220.005C453.673 230.047 444.477 237.687 432.866 242.962L416.672 250.319L433.244 256.778C442.556 260.408 450.942 265.05 458.435 270.687L458.534 270.761L458.636 270.832C470.479 279.141 479.533 289.455 485.909 301.816L485.929 301.855L485.949 301.894C492.239 313.748 495.5 327.665 495.5 343.854C495.5 363.164 492.007 379.585 485.287 393.336L485.255 393.402L485.223 393.471C478.785 407.338 469.495 418.921 457.28 428.294L457.239 428.325L457.199 428.357C445.239 437.797 431.146 444.861 414.809 449.484L414.768 449.496C398.709 454.139 380.948 456.5 361.431 456.5H189.5V78.5H355.943ZM389.598 337.679C389.598 344.482 388.179 349.85 385.689 354.096L385.595 354.258L385.508 354.423C383.345 358.573 380.144 361.765 375.669 364.076C371.508 366.041 365.783 367.232 358.139 367.232H291.013V310.932H355.395C363.344 310.932 369.672 312.289 374.639 314.681L374.808 314.762L374.98 314.835C380.064 316.977 383.585 319.864 385.947 323.354C388.197 326.679 389.598 331.282 389.598 337.679ZM370.393 193.392C370.393 198.956 369.203 203.621 367.014 207.588C364.976 210.93 361.866 213.682 357.27 215.74C352.667 217.801 346.475 219.016 338.385 219.016H291.013V167.768H336.738C350.206 167.768 358.391 170.635 362.969 174.799C367.771 179.166 370.393 185.082 370.393 193.392ZM404.598 337.679C404.598 329.104 402.706 321.355 398.371 314.948C394.18 308.754 388.246 304.177 380.967 301.08C373.536 297.543 364.927 295.932 355.395 295.932H276.013V382.232H358.139C367.267 382.232 375.415 380.821 382.222 377.571L382.314 377.526L382.405 377.479C389.529 373.835 395.043 368.492 398.718 361.526C402.749 354.579 404.598 346.529 404.598 337.679ZM385.393 193.392C385.393 181.49 381.429 171.311 373.062 163.701C364.47 155.888 351.804 152.768 336.738 152.768H276.013V234.016H338.385C347.854 234.016 356.294 232.611 363.397 229.432C370.462 226.27 376.113 221.568 379.93 215.223L379.992 215.119L380.051 215.015C383.675 208.525 385.393 201.249 385.393 193.392Z" stroke="white" stroke-width="15"/>
<path d="M94 71L182.091 71L182.091 95.4113L135.809 134.343L135.809 134.974L182.091 134.974L182.091 164.226L94 164.226L94 139.394L140.11 101.093L140.11 100.251L94 100.251L94 71Z" fill="white"/>
<path d="M182.091 254.15L182.091 285.716L94 250.152L94 210.168L182.091 174.603L182.091 206.169L118.259 229.739L118.259 230.581L182.091 254.15ZM147.336 260.042L147.336 200.698L165.23 200.698L165.23 260.042L147.336 260.042Z" fill="white"/>
<path d="M182.091 366.776L94 366.776L94 337.525L162.821 337.525L162.821 293.963L182.091 293.963L182.091 366.776Z" fill="white"/>
<path d="M182.091 464L94 464L94 417.492C94 409.496 95.2904 402.498 97.8712 396.501C100.452 390.503 104.079 385.838 108.754 382.506C113.428 379.174 118.89 377.508 125.142 377.508C131.45 377.508 136.913 379.227 141.53 382.664C146.146 386.066 149.702 390.854 152.197 397.027C154.692 403.165 155.939 410.337 155.939 418.545L155.939 446.323L137.357 446.323L137.357 424.437C137.357 421 136.87 418.071 135.895 415.651C134.891 413.196 133.472 411.319 131.636 410.022C129.801 408.689 127.636 408.022 125.142 408.022C122.618 408.022 120.467 408.689 118.69 410.022C116.883 411.319 115.507 413.196 114.56 415.651C113.585 418.071 113.098 421 113.098 424.437L113.098 434.749L182.091 434.749L182.091 464Z" fill="white"/>
</svg>
